<svg width="26" height="24" viewBox="0 0 26 24" fill="none" xmlns="http://www.w3.org/2000/svg">
<path d="M20.8167 21.1265C18.6832 22.8844 15.9155 24 12.9027 24C8.41961 24 4.48423 21.5906 2.35083 18.075L3.14953 14.4833L6.68979 13.8422C7.51146 16.4296 9.99082 18.3281 12.9027 18.3281C14.3154 18.3281 15.6272 17.8922 16.7083 17.1187L20.1103 17.625L20.8167 21.1265Z" fill="#59C36A"/>
<path d="M20.8168 21.1266L20.1104 17.625L16.7084 17.1188C15.6273 17.8922 14.3155 18.3281 12.9028 18.3281V24C15.9157 24 18.6833 22.8844 20.8168 21.1266Z" fill="#00A66C"/>
<path d="M6.41592 12C6.41592 12.6468 6.51683 13.2656 6.68981 13.8422L2.35085 18.075C1.26971 16.3031 0.601807 14.2218 0.601807 12C0.601807 9.77807 1.26971 7.69686 2.35085 5.92499L5.83321 6.50966L6.68981 10.1578C6.51683 10.7343 6.41592 11.3531 6.41592 12Z" fill="#FFDA2D"/>
<path d="M25.2036 12C25.2036 15.6562 23.469 18.9328 20.8166 21.1266L16.7082 17.1188C17.5443 16.5281 18.2507 15.7406 18.712 14.8125H12.9026C12.499 14.8125 12.1819 14.5031 12.1819 14.1094V9.89063C12.1819 9.49683 12.499 9.1875 12.9026 9.1875H24.281C24.627 9.1875 24.9297 9.42652 24.9874 9.76402C25.1315 10.4953 25.2036 11.2546 25.2036 12Z" fill="#4086F4"/>
<path d="M18.7122 14.8125C18.2509 15.7406 17.5445 16.5281 16.7085 17.1188L20.8168 21.1266C23.4692 18.9328 25.2038 15.6563 25.2038 12C25.2038 11.2546 25.1317 10.4953 24.9875 9.76402C24.9299 9.42652 24.6271 9.1875 24.2812 9.1875H12.9028V14.8125H18.7122Z" fill="#376AED"/>
<path d="M21.0185 3.35152C21.0329 3.54839 20.9464 3.73125 20.8167 3.87183L17.7318 6.86714C17.4868 7.12027 17.0832 7.14839 16.7949 6.93745C15.656 6.10781 14.3154 5.67188 12.9027 5.67188C9.99082 5.67188 7.51146 7.57027 6.68979 10.1578L2.35083 5.925C4.48423 2.40938 8.41961 0 12.9027 0C15.7713 0 18.5679 1.03125 20.759 2.8312C20.9176 2.95781 21.0041 3.15464 21.0185 3.35152Z" fill="#FF7F23"/>
<path d="M16.7949 6.93745C17.0832 7.14844 17.4868 7.12027 17.7319 6.86714L20.8167 3.87183C20.9465 3.73125 21.033 3.54844 21.0185 3.35152C21.0041 3.15459 20.9176 2.95781 20.7591 2.8312C18.568 1.03125 15.7715 0 12.9028 0V5.67188C14.3155 5.67188 15.6561 6.10781 16.7949 6.93745Z" fill="#F03800"/>
</svg>
