<svg width="18" height="17" viewBox="0 0 18 17" fill="none" xmlns="http://www.w3.org/2000/svg">
<mask id="mask0_243_1685" style="mask-type:luminance" maskUnits="userSpaceOnUse" x="0" y="0" width="18" height="18">
<path d="M13.1521 5.77024C13.5873 6.38675 13.8817 7.08945 14.015 7.82967H15.6476V9.67039H14.015C13.8817 10.4106 13.5873 11.1133 13.1521 11.7298L14.3071 12.8723L12.9911 14.174L11.8362 13.0316C11.2129 13.462 10.5025 13.7532 9.75423 13.8851V15.5H7.89338V13.8851C7.14507 13.7532 6.43468 13.462 5.81144 13.0316L4.65651 14.174L3.34054 12.8723L4.49547 11.7298C4.06036 11.1133 3.76594 10.4106 3.6326 9.67039H2V7.82967H3.6326C3.76594 7.08945 4.06036 6.38675 4.49547 5.77024L3.34054 4.62781L4.65651 3.32607L5.81144 4.46851C6.43468 4.0381 7.14507 3.74687 7.89338 3.61497V2.00003H9.75423V3.61497C10.5025 3.74687 11.2129 4.0381 11.8362 4.46851L12.9911 3.32607L14.3071 4.62781L13.1521 5.77024Z" fill="white" stroke="white" stroke-width="4" stroke-linejoin="round"/>
<path d="M8.82375 10.4375C9.2762 10.4375 9.71011 10.2597 10.03 9.94327C10.35 9.62681 10.5297 9.19758 10.5297 8.75003C10.5297 8.30248 10.35 7.87326 10.03 7.55679C9.71011 7.24032 9.2762 7.06253 8.82375 7.06253C8.3713 7.06253 7.93739 7.24032 7.61746 7.55679C7.29753 7.87326 7.1178 8.30248 7.1178 8.75003C7.1178 9.19758 7.29753 9.62681 7.61746 9.94327C7.93739 10.2597 8.3713 10.4375 8.82375 10.4375Z" fill="black" stroke="black" stroke-width="4" stroke-linejoin="round"/>
</mask>
<g mask="url(#mask0_243_1685)">
<path d="M0.63501 0.650024H17.0121V16.85H0.63501V0.650024Z" fill="#212121"/>
</g>
</svg>
