<svg width="14" height="15" viewBox="0 0 14 15" fill="none" xmlns="http://www.w3.org/2000/svg">
<path d="M10.9518 15C10.3434 15 9.82619 14.7813 9.40029 14.3438C8.97438 13.9063 8.76143 13.375 8.76143 12.75C8.76143 12.6625 8.76752 12.5718 8.77969 12.4778C8.79185 12.3838 8.81011 12.2995 8.83444 12.225L3.6871 9.15001C3.48024 9.33751 3.24903 9.48451 2.99349 9.59101C2.73795 9.69751 2.47024 9.75051 2.19036 9.75001C1.58193 9.75001 1.06476 9.53126 0.638854 9.09376C0.212952 8.65626 7.76686e-09 8.12501 7.16941e-09 7.50001C6.57196e-09 6.87501 0.212952 6.34376 0.638854 5.90626C1.06476 5.46876 1.58193 5.25001 2.19036 5.25001C2.47024 5.25001 2.73795 5.30326 2.99349 5.40976C3.24903 5.51626 3.48024 5.66301 3.6871 5.85001L8.83444 2.77501C8.81011 2.70001 8.79185 2.61576 8.77969 2.52226C8.76752 2.42876 8.76143 2.33801 8.76143 2.25001C8.76143 1.62501 8.97438 1.09376 9.40029 0.656258C9.82619 0.218758 10.3434 7.63918e-06 10.9518 7.63975e-06C11.5602 7.64033e-06 12.0774 0.218758 12.5033 0.656258C12.9292 1.09376 13.1421 1.62501 13.1421 2.25001C13.1421 2.87501 12.9292 3.40626 12.5033 3.84376C12.0774 4.28126 11.5602 4.50001 10.9518 4.50001C10.6719 4.50001 10.4042 4.44701 10.1487 4.34101C9.89312 4.23501 9.66191 4.08801 9.45505 3.90001L4.3077 6.97501C4.33204 7.05001 4.35029 7.13451 4.36246 7.22851C4.37463 7.32251 4.38072 7.41301 4.38072 7.50001C4.38072 7.58751 4.37463 7.67826 4.36246 7.77226C4.35029 7.86626 4.33204 7.95051 4.3077 8.02501L9.45505 11.1C9.66191 10.9125 9.89312 10.7658 10.1487 10.6598C10.4042 10.5538 10.6719 10.5005 10.9518 10.5C11.5602 10.5 12.0774 10.7188 12.5033 11.1563C12.9292 11.5938 13.1421 12.125 13.1421 12.75C13.1421 13.375 12.9292 13.9063 12.5033 14.3438C12.0774 14.7813 11.5602 15 10.9518 15Z" fill="#212121"/>
</svg>
