<svg width="22" height="16" viewBox="0 0 22 16" fill="none" xmlns="http://www.w3.org/2000/svg">
<path d="M15.4 13.8667V16H0V13.8667C0 13.8667 0 9.60002 7.7 9.60002C15.4 9.60002 15.4 13.8667 15.4 13.8667ZM11.55 3.73338C11.55 2.995 11.3242 2.2732 10.9012 1.65925C10.4781 1.04531 9.87683 0.566804 9.17333 0.284238C8.46984 0.00167217 7.69573 -0.07226 6.9489 0.071791C6.20208 0.215842 5.51607 0.571406 4.97764 1.09352C4.43921 1.61563 4.07253 2.28085 3.92398 3.00504C3.77542 3.72923 3.85167 4.47988 4.14306 5.16206C4.43446 5.84423 4.92793 6.4273 5.56105 6.83752C6.19418 7.24774 6.93854 7.4667 7.7 7.4667C8.72108 7.4667 9.70035 7.07337 10.4224 6.37323C11.1444 5.6731 11.55 4.72351 11.55 3.73338ZM15.334 9.60002C16.0102 10.1075 16.5635 10.7525 16.955 11.4896C17.3465 12.2268 17.5667 13.0381 17.6 13.8667V16H22V13.8667C22 13.8667 22 9.99469 15.334 9.60002ZM14.3 5.60841e-05C13.5429 -0.00403213 12.8024 0.215475 12.177 0.629387C12.8452 1.5347 13.2045 2.62009 13.2045 3.73338C13.2045 4.84667 12.8452 5.93205 12.177 6.83737C12.8024 7.25128 13.5429 7.47078 14.3 7.4667C15.3211 7.4667 16.3003 7.07337 17.0224 6.37323C17.7444 5.6731 18.15 4.72351 18.15 3.73338C18.15 2.74324 17.7444 1.79365 17.0224 1.09352C16.3003 0.393387 15.3211 5.60841e-05 14.3 5.60841e-05Z" fill="#2E2E2E"/>
</svg>
